# xmcd CD database file
#
# Track frame offsets:
#	150
#	14596
#	29548
#	44588
#	58316
#	71833
#	86139
#	99109
#	110523
#	124549
#	138397
#	151739
#	165877
#	178282
#	191498
#	205671
#	218328
#	230911
#	243516
#	257527
#	272030
#	284599
#
# Disc length: 3994 seconds
#
# Revision: 2
# Processed by: cddbd v1.5.2PL0 Copyright (c) Steve Scherf et al.
# Submitted via: CDex 1.51
#
DISCID=410f9816
DTITLE=Kid Ory - Ory's Creole Trombone
DYEAR=1900
DGENRE=Jazz
TTITLE0=Creole Song
TTITLE1=South
TTITLE2=Blues for Jimmie Noone
TTITLE3=Get out of here
TTITLE4=Panama
TTITLE5=Careless Love
TTITLE6=Do what Ory say
TTITLE7=Oh, didn't he Ramble
TTITLE8=Maryland my Maryland
TTITLE9=Down Home Rag
TTITLE10=1919 Rag
TTITLE11=Ory's Creole Trombone
TTITLE12=Weary Blues
TTITLE13=Original Dixieland one Step
TTITLE14=Maple Leaf Rag
TTITLE15=Tiger Rag
TTITLE16=Bill Baily won't you please come Home
TTITLE17=Farewell to Storyville
TTITLE18=Joshua fit the Battle of Jericho
TTITLE19=Bucket's got a Hole in It
TTITLE20=Eh, La-Bas
TTITLE21=The World's Jazz Crazy, lawdy so am I
EXTD=
EXTT0=
EXTT1=
EXTT2=
EXTT3=
EXTT4=
EXTT5=
EXTT6=
EXTT7=
EXTT8=
EXTT9=
EXTT10=
EXTT11=
EXTT12=
EXTT13=
EXTT14=
EXTT15=
EXTT16=
EXTT17=
EXTT18=
EXTT19=
EXTT20=
EXTT21=
PLAYORDER=
